<svg width="508" height="500" viewBox="0 0 508 500" fill="none" xmlns="http://www.w3.org/2000/svg">
<path d="M121.367 321.509C121.367 321.509 224.622 498.82 224.622 499.597C224.622 500.375 507.162 270.227 507.162 270.227L403.907 98.6089L121.367 321.492V321.509Z" fill="#F2D4AE"/>
<path d="M121.367 321.509L43.6187 267.017L121.367 404.116L224.622 499.597L121.367 321.509Z" fill="#D8BC9E"/>
<path d="M43.6187 267.017L298.774 77.593L403.907 98.6253L121.367 321.509L43.6187 267.017Z" fill="#C6AB93"/>
<path d="M298.774 77.5931L320.656 0H422.033L403.907 104.07L298.774 77.5931Z" fill="#F2D4AE"/>
<path d="M43.6187 267.017L0 361.042C0 361.042 81.5757 441.101 81.5757 438.751C81.5757 436.401 121.367 321.525 121.367 321.525L43.6187 267.033V267.017Z" fill="#F2D4AE"/>
</svg>
