<svg width="518" height="564" viewBox="0 0 518 564" fill="none" xmlns="http://www.w3.org/2000/svg">
<path d="M0 441.751C0 441.751 91.9314 431.326 113.177 445.375C134.424 459.424 197.18 563.758 197.18 563.758C197.18 563.758 243.254 445.259 302.168 394.887C361.082 344.515 410.811 291.628 410.811 291.628L476.499 85.6567L342.19 46.4878L124.183 225.354L0 441.751Z" fill="#F4DFC6"/>
<path d="M60.1273 438.044C60.1273 438.044 151.424 430.548 165.087 439.119C178.75 447.691 230.385 492.883 232.392 489.226C234.4 485.569 270.812 428.893 270.812 428.893L353.297 348.768L378.125 324.807L377.374 218.387L467.645 113.374L476.484 85.6399L433.255 68.9265L60.1128 438.044H60.1273Z" fill="#DBC8B9"/>
<path d="M0 441.751L174.417 82.3139C174.417 82.3139 281.225 14.6164 332.687 3.21495C384.163 -8.18655 517.315 14.4013 517.315 14.4013C517.315 14.4013 372.189 214.316 369.921 217.345C367.654 220.39 359.378 357.472 340.544 394.374C321.71 431.276 300.767 469.319 300.767 469.319C300.767 469.319 184.932 421.612 133.398 429.158C81.8644 436.704 0 441.751 0 441.751Z" fill="#FFE9CC"/>
<path d="M185.279 91.018L142.686 180.708L268.718 127.622L301.764 28.5166L185.279 91.018Z" fill="#FFFAE3"/>
<path d="M139.638 189.18L19.7729 421.943L72.7798 410.773L180.512 174.949L139.638 189.18Z" fill="#D8C5B2"/>
<path d="M90.4438 409.168L200.56 164.193L249.551 142.879L143.48 404.468L90.4438 409.168Z" fill="#D8C5B2"/>
<path d="M170.214 401.903L272.949 142.101L326.259 21.1198L368.463 17.4958C368.463 17.4958 321.175 105.365 306.703 151.153C292.231 196.958 258.289 276.371 245.68 313.207C233.071 350.042 210.872 411.766 210.872 411.766L170.214 401.887V401.903Z" fill="#D8C5B2"/>
<path d="M279.81 307.564L310.314 175.478C310.314 175.478 366.499 28.6655 382.704 25.7696C398.909 22.8903 463.023 34.6724 463.023 34.6724L355.392 192.953L337.323 313.14L279.81 307.564Z" fill="#D8C5B2"/>
<path d="M225.59 412.031L295.351 443.438C295.351 443.438 318.836 395.516 326.635 375.94C334.434 356.363 338.017 339.948 338.017 339.948L268.891 313.438L225.604 412.047L225.59 412.031Z" fill="#FFFAE3"/>
<path d="M117.034 227.075C117.901 226.909 236.263 192.159 236.263 192.159L243.673 177.944L122.956 213.754L117.034 227.075Z" fill="#FFE9CC"/>
<path d="M127.708 212.347C128.3 211.189 234.198 180.757 234.198 180.757L249.566 142.863L139.652 189.164L127.722 212.331L127.708 212.347Z" fill="#D8C5B2"/>
<path d="M107.79 239.171C108.599 239.304 161.765 223.103 161.765 223.103L156.724 230.964L103.862 243.606L107.805 239.171H107.79Z" fill="#FFE9CC"/>
<path d="M86.5008 284.993C87.3096 285.125 140.476 268.925 140.476 268.925L135.435 276.785L82.5723 289.427L86.5153 284.993H86.5008Z" fill="#FFE9CC"/>
<path d="M167.239 223.252C168.25 223.335 239.268 202.121 239.268 202.121L231.512 210.792L161.462 228.217L167.239 223.236V223.252Z" fill="#FFE9CC"/>
<path d="M149.358 275.825C150.369 275.908 221.387 254.693 221.387 254.693L213.631 263.364L143.581 280.789L149.358 275.808V275.825Z" fill="#FFE9CC"/>
<path d="M144.23 289.609C145.241 289.692 216.259 268.478 216.259 268.478L208.503 277.149L138.453 294.574L144.23 289.593V289.609Z" fill="#FFE9CC"/>
<path d="M115.878 344.019C116.889 344.102 187.907 322.887 187.907 322.887L180.151 331.558L110.101 348.983L115.878 344.002V344.019Z" fill="#FFE9CC"/>
<path d="M114.131 353.799C115.142 353.881 186.159 332.667 186.159 332.667L178.403 341.338L108.354 358.763L114.131 353.782V353.799Z" fill="#FFE9CC"/>
<path d="M106.375 371.157C107.386 371.24 178.404 350.026 178.404 350.026L170.648 358.697L100.598 376.122L106.375 371.141V371.157Z" fill="#FFE9CC"/>
<path d="M84.3343 295.169C85.1431 295.302 138.309 279.101 138.309 279.101L133.268 286.962L80.4058 299.604L84.3488 295.169H84.3343Z" fill="#FFE9CC"/>
<path d="M66.3812 330.168C67.19 330.3 120.356 314.1 120.356 314.1L115.315 321.96L62.4526 334.603L66.3956 330.168H66.3812Z" fill="#FFE9CC"/>
<path d="M52.3279 355.768C53.1368 355.9 106.302 339.7 106.302 339.7L101.262 347.56L48.3994 360.203L52.3424 355.768H52.3279Z" fill="#FFE9CC"/>
<path d="M38.78 385.388C39.6466 385.488 98.0554 366.491 98.0554 366.491L92.2925 374.748L34.3462 390.105L38.7945 385.388H38.78Z" fill="#FFE9CC"/>
<path d="M307.512 48.7051C308.581 48.6389 355.926 52.2464 355.926 52.2464L357.674 42.3673L311.065 40.6628L307.527 48.6886L307.512 48.7051Z" fill="#FFE9CC"/>
<path d="M289.833 88.0063C290.902 88.0725 337.727 96.8429 337.727 96.8429L340.284 87.1955L294.036 80.3943L289.833 88.0063Z" fill="#FFE9CC"/>
<path d="M283.536 101.361C284.605 101.427 331.43 110.197 331.43 110.197L333.987 100.55L287.739 93.7485L283.536 101.361Z" fill="#FFE9CC"/>
<path d="M263.128 149.432C264.197 149.498 311.022 158.269 311.022 158.269L313.578 148.621L267.331 141.82L263.128 149.432Z" fill="#FFE9CC"/>
<path d="M244.843 191.282C246.258 191.183 295.293 200.052 295.293 200.052L294.513 204.504L242.835 194.856L244.843 191.282Z" fill="#FFE9CC"/>
<path d="M235.945 208.425C237.361 208.326 286.396 217.196 286.396 217.196L285.616 221.647L233.938 212L235.945 208.425Z" fill="#FFE9CC"/>
<path d="M223.741 243.854C225.156 243.755 274.191 252.625 274.191 252.625L273.412 257.076L221.733 247.429L223.741 243.854Z" fill="#FFE9CC"/>
<path d="M220.058 254.875C221.473 254.776 270.508 263.646 270.508 263.646L269.728 268.097L218.05 258.45L220.058 254.875Z" fill="#FFE9CC"/>
<path d="M197.281 313.471C198.696 313.372 247.732 322.242 247.732 322.242L246.952 326.693L195.273 317.046L197.281 313.471Z" fill="#FFE9CC"/>
<path d="M192.977 326.809C194.392 326.71 243.427 335.579 243.427 335.579L242.647 340.031L190.969 330.383L192.977 326.809Z" fill="#FFE9CC"/>
<path d="M174.807 375.063C176.223 374.963 225.257 383.833 225.257 383.833L224.477 388.284L172.799 378.637L174.807 375.063Z" fill="#FFE9CC"/>
<path d="M358.208 55.9531C358.208 55.9531 451.988 64.7731 451.569 66.1135C451.151 67.4539 443.626 87.1293 442.817 87.543C442.008 87.9567 348.921 76.8696 348.921 76.8696L358.208 55.9365V55.9531Z" fill="#FFE9CC"/>
<path d="M333.987 100.566C336.457 100.384 418.668 108.675 418.668 108.675L415.664 114.003L332.282 106.987L333.987 100.566Z" fill="#FFE9CC"/>
<path d="M376.565 175.958L382.068 166.592L315.124 149.862L376.565 175.958Z" fill="#FFE9CC"/>
<path d="M292.274 228.051C293.459 227.786 358.974 230.914 358.974 230.914L361.14 221.928L294.181 221.978L292.274 228.051Z" fill="#FFE9CC"/>
<path d="M281.298 266.293L359.118 279.614L359.248 266.442L284.461 256.861L281.298 266.293Z" fill="#FFE9CC"/>
<path d="M242.648 388.88C242.156 385.074 243.312 381.036 245.666 378.289C249.696 373.59 256.715 372.729 259.618 367.037C261.366 363.595 261.077 359.276 262.175 355.503C262.984 352.74 264.558 350.257 266.609 348.536C268.992 346.551 271.938 345.558 274.249 343.473C277.86 340.213 280.128 334.239 284.692 333.743C286.338 333.561 288.173 334.404 288.837 336.142C289.53 337.995 288.721 340.097 288.591 342.099C288.36 345.723 290.383 349 291.018 352.558C291.798 356.843 290.383 361.543 287.48 364.389C285.645 366.176 283.276 367.285 281.832 369.486C278.987 373.822 280.936 379.994 280.301 385.372C279.579 391.561 275.333 396.525 270.667 399.752C266.941 402.334 262.709 404.137 258.362 404.104C251.299 404.038 243.702 397.154 242.648 388.88Z" fill="#EA9C5C"/>
<path d="M280.113 406.355C279.767 403.69 280.575 400.844 282.236 398.925C285.067 395.615 289.992 395.019 292.029 391.031C293.257 388.615 293.054 385.587 293.834 382.923C294.398 380.97 295.51 379.249 296.954 378.041C298.629 376.651 300.695 375.956 302.312 374.483C304.84 372.2 306.443 367.997 309.65 367.666C310.805 367.55 312.091 368.129 312.553 369.337C313.044 370.644 312.466 372.1 312.38 373.524C312.221 376.072 313.636 378.372 314.084 380.871C314.633 383.883 313.636 387.176 311.6 389.178C310.314 390.436 308.653 391.213 307.628 392.752C305.62 395.797 306.992 400.133 306.559 403.906C306.053 408.258 303.078 411.733 299.799 414C297.185 415.803 294.21 417.078 291.162 417.061C286.194 417.011 280.879 412.179 280.128 406.371L280.113 406.355Z" fill="#EA9C5C"/>
<path d="M275.246 351.995C274.437 355.106 272.892 357.902 271.418 360.683C264.052 374.566 257.813 389.244 252.844 404.452C252.324 406.024 251.79 407.679 250.678 408.787C249.565 409.896 247.703 410.194 246.692 408.953C244.655 406.471 249.956 401.225 251.227 399.107C253.393 395.466 255.271 391.594 257.033 387.689C260.586 379.795 263.648 371.621 267.605 363.976C269.815 359.723 272.299 355.635 275.26 351.995H275.246Z" fill="#AD7145"/>
<path d="M299.727 392.289C299.279 394.01 298.413 395.549 297.589 397.088C293.488 404.75 290.021 412.858 287.233 421.264C286.945 422.141 286.641 423.052 286.02 423.664C285.399 424.276 284.374 424.442 283.81 423.763C282.684 422.39 285.63 419.494 286.338 418.319C287.537 416.3 288.591 414.165 289.573 412.014C291.552 407.662 293.256 403.144 295.466 398.925C296.694 396.575 298.08 394.308 299.713 392.306L299.727 392.289Z" fill="#AD7145"/>
<path d="M239.917 406.487C242.243 406.388 244.597 406.007 246.879 406.52C250.678 407.381 253.682 410.574 256.903 413.04C260.643 415.886 264.89 417.839 269.31 418.749C273.354 419.576 277.499 419.527 281.543 420.271C288.302 421.513 294.73 425.004 299.857 430.2C295.972 429.737 293.213 424.822 289.313 424.772C286.872 424.739 284.677 426.659 282.236 426.775C278.784 426.94 276.055 423.564 272.819 422.208C268.688 420.47 263.836 422.042 259.864 419.858C258.13 418.898 256.672 417.276 254.808 416.714C253.119 416.201 251.328 416.664 249.58 416.747C247.327 416.846 245.045 416.316 243.008 415.224C241.16 414.231 239.499 412.759 237.563 412.014C234.703 410.889 231.367 411.369 228.811 409.532C229.432 408.456 230.341 405.809 231.28 405.18C232.364 404.468 231.829 404.832 232.985 405.196C235.353 405.941 237.231 406.686 239.917 406.52V406.487Z" fill="#EA9C5C"/>
<path d="M201.773 100.55C201.47 102.32 202.148 104.107 202.871 105.696C203.593 107.301 204.416 108.939 204.416 110.743C204.416 112.894 203.246 114.83 201.802 116.204C200.372 117.577 198.668 118.537 197.108 119.729C193.396 122.591 190.55 126.894 189.149 131.742C188.572 133.728 188.239 135.896 188.745 137.915C189.886 142.482 194.985 144.385 198.971 143.111C202.957 141.82 206.048 138.312 208.98 134.969C211.912 131.61 215.075 128.151 219.105 127.026C221.416 126.381 223.828 126.563 226.182 126.248C230.226 125.719 234.126 123.684 237.13 120.539C240.105 117.428 242.228 112.282 240.279 108.244C238.993 105.58 236.177 103.958 235.584 100.98C235.036 98.2329 236.625 95.6018 237.997 93.2685C239.369 90.9353 240.611 87.8904 239.412 85.4248C238.43 83.3894 236.047 82.6779 234.082 83.257C232.118 83.8362 230.5 85.4248 229.114 87.1127C226.11 90.7532 223.395 95.3039 219.148 96.4954C216.621 97.2069 213.833 96.5946 211.464 97.8192C210.352 98.3818 209.384 99.3416 208.215 99.6891C206.077 100.318 202.683 95.0226 201.744 100.516L201.773 100.55Z" fill="#98DBED"/>
<path d="M216.75 113.043C215.537 115.625 215.884 119.381 218.108 120.821C219.379 121.648 220.939 121.582 222.398 121.367C224.376 121.069 226.312 120.573 228.204 119.861C231.078 118.785 234.111 116.866 234.934 113.523C235.758 110.147 233.735 106.358 230.832 105.233C226.485 103.545 218.83 108.625 216.75 113.027V113.043Z" fill="#EA9C5C"/>
<path d="M248.381 67.2388C246.648 68.5792 245.29 70.7635 245.29 73.163C245.29 77.0352 248.627 80.1627 248.468 84.0184C248.309 88.0892 244.279 91.5808 245.464 95.4199C245.897 96.843 246.994 97.869 248.164 98.5144C251.14 100.136 254.924 99.5403 257.408 97.0581C259.719 94.7414 260.831 91.0843 263.272 88.9331C265.569 86.8977 268.717 86.484 271.086 84.5479C273.7 82.4132 275 78.69 275.462 75.0329C276.026 70.5981 275.043 65.1703 271.418 63.499C268.92 62.3572 266.132 63.4163 263.518 64.0947C258.477 65.402 252.902 63.7307 248.381 67.2057V67.2388Z" fill="#98DBED"/>
<path d="M168.365 141.274C168.481 141.936 168.697 142.631 169.16 143.028C170.358 144.071 172.121 142.548 173.565 143.045C174.518 143.359 175.081 144.468 175.385 145.543C175.688 146.619 175.818 147.777 176.323 148.754C176.511 149.118 176.771 149.465 177.132 149.565C177.493 149.68 177.869 149.515 178.201 149.333C180.945 147.86 182.794 144.418 182.679 140.943C182.592 138.345 181.523 135.797 181.913 133.248C182.448 129.757 185.553 127.241 185.827 123.7C185.899 122.707 185.683 121.599 184.96 121.036C184.426 120.622 183.719 120.622 183.069 120.755C178.822 121.698 175.674 127.738 172.67 130.948C169.911 133.894 167.903 136.69 168.365 141.257V141.274Z" fill="#98DBED"/>
<path d="M261.524 80.9734C263.243 81.0231 264.89 80.295 266.493 79.5669C267.648 79.0373 268.833 78.4913 269.714 77.5149C270.595 76.5386 271.144 74.9831 270.681 73.6593C269.526 70.2835 262.247 70.5152 259.95 71.9217C255.964 74.3377 256.787 80.8411 261.524 80.99V80.9734Z" fill="#EA9C5C"/>
<path d="M174.663 132.901C173.623 133.331 172.54 133.794 171.702 134.622C170.864 135.449 170.286 136.773 170.546 138.014C170.792 139.156 171.716 140.016 172.713 140.265C173.724 140.513 174.778 140.232 175.703 139.735C176.714 139.172 177.623 138.312 178.1 137.154C178.562 135.995 178.519 134.506 177.811 133.53C177.104 132.553 175.688 132.255 174.822 133.066L174.677 132.917L174.663 132.901Z" fill="#EA9C5C"/>
</svg>
